#!OML:ASF E:\Steps\Project 1\Capture day 1\Session 2\Subject.ASF
:FULLY-SPECIFIED
:DEGREES
61
root -1.73706 16.1961 36.1024 -151.688 -1.25803 177.211
lowerback -31.5836 -2.472 -6.24518
upperback -1.72569 -1.83669 -0.0664187
thorax 14.6823 -1.5606 2.46074
lowerneck -2.51826 -2.90848 0.449048
upperneck 12.4803 -3.91948 4.59256
head 4.68979 -1.43983 1.31133
rclavicle 7.85199e-015 1.51076e-014
rhumerus -38.4375 -23.1438 -74.9856
rradius 29.8103
rwrist 1.54991
rhand -1.59196 -57.4713
rfingers 7.12502
rthumb 24.0647 -85.9824
lclavicle 7.85199e-015 1.51076e-014
lhumerus -30.9993 7.99579 79.7308
lradius 20.3216
lwrist -6.58372
lhand -19.5733 -12.3915
lfingers 7.12502
lthumb 6.75174 17.4808
rfemur -22.3463 5.88824 19.5426
rtibia 3.85764
rfoot -17.8138 -6.165
rtoes -28.7844
lfemur -24.1091 -8.89842 -20.0226
ltibia 9.16554
lfoot -9.59718 5.02369
ltoes -45.7919
62
root -1.73481 16.1952 36.1043 -151.63 -1.26584 177.224
lowerback -31.6211 -2.44234 -6.24817
upperback -1.73298 -1.79709 -0.066476
thorax 14.6865 -1.54428 2.47751
lowerneck -2.00467 -2.7728 0.265994
upperneck 11.9039 -3.75098 5.12093
head 4.39269 -1.36205 1.53246
rclavicle 5.19325e-015 2.88238e-014
rhumerus -38.3879 -23.2798 -74.9415
rradius 29.7883
rwrist 1.69662
rhand -1.59827 -56.6701
rfingers 7.12502
rthumb 24.0587 -85.1821
lclavicle 5.19325e-015 2.88238e-014
lhumerus -31.0063 7.90966 79.805
lradius 20.4432
lwrist -6.44183
lhand -19.6825 -12.4533
lfingers 7.12502
lthumb 6.64632 17.4224
rfemur -22.3904 6.71407 19.4036
rtibia 3.87228
rfoot -17.7125 -7.07501
rtoes -29.3041
lfemur -24.1961 -8.76225 -20.0148
ltibia 9.17312
lfoot -9.60239 4.9197
ltoes -45.6085
63
root -1.7327 16.1934 36.1055 -151.593 -1.26527 177.232
lowerback -31.711 -2.40465 -6.23271
upperback -1.70086 -1.74043 -0.0909346
thorax 14.757 -1.51884 2.46308
lowerneck -1.187 -2.52747 0.031397
upperneck 10.9035 -3.43362 5.91958
head 3.89253 -1.22115 1.85452
rclavicle 9.19379e-016 2.04748e-014
rhumerus -38.2331 -23.47 -74.9075
rradius 29.633
rwrist 1.83658
rhand -1.83773 -56.1822
rfingers 7.12502
rthumb 23.829 -84.7242
lclavicle 9.19379e-016 2.04748e-014
lhumerus -30.9671 7.79441 79.8425
lradius 20.5436
lwrist -6.36137
lhand -19.6202 -12.4937
lfingers 7.12502
lthumb 6.70651 17.3801
rfemur -22.4276 6.06195 19.5953
rtibia 3.84011
rfoot -17.5816 -6.59399
rtoes -30.7321
lfemur -24.2509 -8.63037 -20.0212
ltibia 9.21803
lfoot -9.67272 4.81458
ltoes -45.5311
64
root -1.73273 16.1937 36.1055 -151.639 -1.29289 177.19
lowerback -31.6965 -2.33654 -6.16026
upperback -1.65746 -1.65109 -0.226828
thorax 14.7875 -1.47004 2.31318
lowerneck -1.86446 -2.74414 0.365032
upperneck 11.6735 -3.7344 5.47095
head 4.28933 -1.33761 1.63427
rclavicle 7.35503e-015 4.96962e-015
rhumerus -38.2348 -23.6559 -75.0034
rradius 29.5997
rwrist 1.79581
rhand -1.96 -56.0966
rfingers 7.12502
rthumb 23.7118 -84.6539
lclavicle 7.35503e-015 4.96962e-015
lhumerus -30.8812 7.42092 79.7908
lradius 20.6088
lwrist -6.18597
lhand -19.3033 -12.4815
lfingers 7.12502
lthumb 7.0124 17.3824
rfemur -22.3473 5.74353 19.6041
rtibia 3.7596
rfoot -17.61 -6.18144
rtoes -30.7084
lfemur -24.2041 -8.72566 -20.0585
ltibia 9.24776
lfoot -9.78012 4.787
ltoes -45.7082
65
root -1.73197 16.1953 36.1068 -151.725 -1.34817 177.141
lowerback -31.5966 -2.26672 -6.172
upperback -1.60187 -1.53224 -0.335591
thorax 14.7953 -1.4115 2.25333
lowerneck -2.29281 -2.83373 0.625711
upperneck 11.9327 -3.88171 5.39019
head 4.46383 -1.38672 1.55303
rclavicle 8.84592e-015 -9.14409e-015
rhumerus -38.2696 -23.8093 -75.0958
rradius 29.6927
rwrist 1.62915
rhand -2.09962 -56.459
rfingers 7.12502
rthumb 23.5778 -85.0336
lclavicle 8.84592e-015 -9.14409e-015
lhumerus -30.7524 6.97349 79.8311
lradius 20.6707
lwrist -6.01574
lhand -19.1216 -12.3416
lfingers 7.12502
lthumb 7.18776 17.5163
rfemur -22.1971 6.04712 19.4465
rtibia 3.5132
rfoot -17.5706 -6.3053
rtoes -29.2384
lfemur -24.1299 -8.82124 -20.0955
ltibia 9.26656
lfoot -9.75187 4.80115
ltoes -45.5872
66
root -1.72878 16.1954 36.1099 -151.755 -1.34177 177.094
lowerback -31.4786 -2.42027 -6.39187
upperback -1.67426 -1.70246 -0.108483
thorax 14.6849 -1.50498 2.55309
lowerneck -2.17254 -2.76895 0.229003
upperneck 12.1374 -3.76282 5.37138
head 4.52099 -1.34009 1.62641
rclavicle -1.79155e-014 -1.90833e-014
rhumerus -38.1943 -23.3175 -74.9261
rradius 29.6423
rwrist 1.70121
rhand -2.26746 -56.8829
rfingers 7.12502
rthumb 23.4168 -85.4781
lclavicle -1.79155e-014 -1.90833e-014
lhumerus -30.9822 7.48022 80.0054
lradius 20.7502
lwrist -6.1638
lhand -19.107 -12.1557
lfingers 7.12502
lthumb 7.20184 17.7018
rfemur -22.2195 5.75242 19.5295
rtibia 3.7578
rfoot -17.6927 -6.34377
rtoes -30.407
lfemur -24.1288 -8.81182 -20.1341
ltibia 9.29315
lfoot -9.65989 4.81173
ltoes -44.8138
67
root -1.7262 16.1948 36.1126 -151.738 -1.33896 177.088
lowerback -31.4686 -2.45476 -6.44244
upperback -1.703 -1.74307 -0.0538371
thorax 14.6533 -1.52797 2.62347
lowerneck -1.92931 -2.77149 0.0796438
upperneck 12.1111 -3.75074 5.46552
head 4.46955 -1.33689 1.68777
rclavicle -8.79622e-015 -4.17448e-015
rhumerus -38.0855 -23.3017 -74.9079
rradius 29.6733
rwrist 2.0818
rhand -2.04858 -57.911
rfingers 7.12502
rthumb 23.6268 -86.4793
lclavicle -8.79622e-015 -4.17448e-015
lhumerus -31.0361 7.69743 80.0325
lradius 20.7946
lwrist -6.41271
lhand -18.994 -12.0467
lfingers 7.12502
lthumb 7.31095 17.807
rfemur -22.2743 5.70701 19.5551
rtibia 3.83182
rfoot -17.6929 -6.42365
rtoes -30.7068
lfemur -24.1785 -8.80027 -20.1193
ltibia 9.31998
lfoot -9.69662 4.78412
ltoes -44.4246
68
root -1.72468 16.1964 36.1141 -151.751 -1.41948 177.128
lowerback -31.4372 -2.34124 -6.22714
upperback -1.69009 -1.64841 -0.213462
thorax 14.6373 -1.46733 2.37361
lowerneck -2.17781 -2.84338 0.326249
upperneck 12.2702 -3.86916 5.47562
head 4.57511 -1.3716 1.6418
rclavicle 1.08835e-014 -1.23246e-014
rhumerus -38.1299 -23.8425 -74.9376
rradius 29.553
rwrist 2.3521
rhand -2.18894 -57.8621
rfingers 7.12502
rthumb 23.4922 -86.4477
lclavicle 1.08835e-014 -1.23246e-014
lhumerus -30.9647 7.39414 79.908
lradius 20.8423
lwrist -6.46022
lhand -18.9037 -12.0031
lfingers 7.12502
lthumb 7.39809 17.8476
rfemur -22.2944 5.4124 19.6855
rtibia 3.88643
rfoot -17.7481 -6.13787
rtoes -30.3436
lfemur -24.1989 -8.75987 -20.0593
ltibia 9.36158
lfoot -9.74604 4.69748
ltoes -45.1574
69
root -1.72389 16.1999 36.114 -151.783 -1.50767 177.124
lowerback -31.3608 -2.30958 -6.21336
upperback -1.70052 -1.6131 -0.231647
thorax 14.5878 -1.44832 2.36357
lowerneck -2.98788 -2.97335 0.546775
upperneck 13.2351 -4.10149 5.2556
head 4.55266 -1.43758 1.3476
rclavicle 7.8023e-015 2.66371e-014
rhumerus -38.2244 -23.913 -74.9218
rradius 29.6636
rwrist 2.35631
rhand -2.2203 -57.51
rfingers 7.12502
rthumb 23.4621 -86.0995
lclavicle 7.8023e-015 2.66371e-014
lhumerus -30.9934 7.13145 79.9923
lradius 20.9538
lwrist -6.23264
lhand -18.9716 -11.8452
lfingers 7.12502
lthumb 7.33256 18.0078
rfemur -22.2704 5.11779 19.7554
rtibia 3.90713
rfoot -17.7669 -5.8749
rtoes -29.6894
lfemur -24.1865 -8.73699 -20.0599
ltibia 9.39523
lfoot -9.72762 4.63409
ltoes -45.9578
70
root -1.72334 16.2014 36.114 -151.787 -1.52186 177.066
lowerback -31.2997 -2.31764 -6.31657
upperback -1.74148 -1.6004 -0.212886
thorax 14.5135 -1.44933 2.44666
lowerneck -3.93926 -3.17598 0.741278
upperneck 14.1533 -4.37795 4.65449
head 4.98578 -1.55769 1.10127
rclavicle 1.5381e-014 1.15295e-014
rhumerus -38.249 -23.5302 -75.045
rradius 29.8448
rwrist 1.97663
rhand -2.50503 -57.3633
rfingers 7.12502
rthumb 23.1889 -85.9874
lclavicle 1.5381e-014 1.15295e-014
lhumerus -31.0794 6.95567 80.1138
lradius 21.0479
lwrist -6.12655
lhand -19.1089 -11.7306
lfingers 7.12502
lthumb 7.20005 18.127
rfemur -22.1995 5.32841 19.611
rtibia 3.78191
rfoot -17.6988 -5.99447
rtoes -29.3905
lfemur -24.1885 -8.7397 -20.1311
ltibia 9.38457
lfoot -9.64828 4.59993
ltoes -45.9025
71
root -1.72227 16.1993 36.1125 -151.741 -1.51308 177.034
lowerback -31.3317 -2.30753 -6.40472
upperback -1.77371 -1.56522 -0.18889
thorax 14.4881 -1.44153 2.53358
lowerneck -2.778 -2.8679 0.356063
upperneck 12.9638 -3.96666 5.59197
head 4.44084 -1.37241 1.49179
rclavicle 6.43565e-015 5.36719e-015
rhumerus -38.2303 -23.2097 -75.1468
rradius 30.0585
rwrist 1.64909
rhand -2.54348 -57.8763
rfingers 7.12502
rthumb 23.152 -86.505
lclavicle 6.43565e-015 5.36719e-015
lhumerus -31.0947 6.80008 80.2576
lradius 21.0461
lwrist -6.20617
lhand -19.3742 -11.731
lfingers 7.12502
lthumb 6.9439 18.1351
rfemur -22.1913 5.50349 19.5172
rtibia 3.68729
rfoot -17.6758 -6.14092
rtoes -31.1221
lfemur -24.206 -8.82331 -20.1482
ltibia 9.30817
lfoot -9.50161 4.65092
ltoes -45.5593
